<svg width="26" height="27" viewBox="0 0 26 27" fill="none" xmlns="http://www.w3.org/2000/svg">
<path d="M8 8V13.3333L0 6.66667L8 0V5.33333H14.6667C17.4956 5.33333 20.2088 6.45714 22.2091 8.45753C24.2095 10.4579 25.3333 13.171 25.3333 16C25.3333 18.829 24.2095 21.5421 22.2091 23.5425C20.2088 25.5429 17.4956 26.6667 14.6667 26.6667H2.66667V24H14.6667C16.7884 24 18.8232 23.1571 20.3235 21.6569C21.8238 20.1566 22.6667 18.1217 22.6667 16C22.6667 13.8783 21.8238 11.8434 20.3235 10.3431C18.8232 8.84285 16.7884 8 14.6667 8H8Z" fill="#F3EFFF"/>
</svg>
