<svg width="17" height="17" viewBox="0 0 17 17" fill="none" xmlns="http://www.w3.org/2000/svg">
<path d="M14.8525 13.1475C14.4622 12.7736 14.0824 12.389 13.7134 11.9942C13.4034 11.6792 13.2167 11.45 13.2167 11.45L10.8834 10.3358C11.8175 9.27635 12.3331 7.91248 12.3334 6.49999C12.3334 3.28416 9.71669 0.666656 6.50002 0.666656C3.28335 0.666656 0.666687 3.28416 0.666687 6.49999C0.666687 9.71582 3.28335 12.3333 6.50002 12.3333C7.96919 12.3333 9.30835 11.7833 10.3359 10.8842L11.45 13.2175C11.45 13.2175 11.6792 13.4042 11.9942 13.7142C12.3167 14.0167 12.7409 14.4258 13.1475 14.8533L14.2792 16.0133L14.7825 16.5517L16.55 14.7842L16.0117 14.2808C15.6959 13.9708 15.2742 13.5592 14.8525 13.1475ZM6.50002 10.6667C4.20252 10.6667 2.33335 8.79749 2.33335 6.49999C2.33335 4.20249 4.20252 2.33332 6.50002 2.33332C8.79752 2.33332 10.6667 4.20249 10.6667 6.49999C10.6667 8.79749 8.79752 10.6667 6.50002 10.6667Z" fill="#FF4989"/>
</svg>
